<svg xmlns="http://www.w3.org/2000/svg" width="200.055" height="33.548" viewBox="0 0 635.094 106.501">
  <defs>
    <style>
      .cls-1 {
        fill: #fff;
        fill-rule: evenodd;
      }
    </style>
  </defs>
  <path id="luna_cornua" data-name="luna cornua" class="cls-1" d="M10.63,115.838a2.379,2.379,0,0,0,2.1,2.85h5.4a3.191,3.191,0,0,0,2.85-2.85l13.949-99.3a2.379,2.379,0,0,0-2.1-2.85h-5.25a3.339,3.339,0,0,0-3,2.85Zm51,4.349c11.1,0,18.3-7.649,18.749-7.949l0.6,3.9c0.3,1.5.6,2.55,1.95,2.55h3a3.089,3.089,0,0,0,3-2.85l7.65-54.3a2.477,2.477,0,0,0-2.25-2.85h-5.1a3.207,3.207,0,0,0-3,2.85l-5.7,40.048c-0.15,0-6.9,9.15-16.349,9.15-7.35,0-11.1-6.15-9.45-17.549l4.5-31.649a2.477,2.477,0,0,0-2.25-2.85h-5.4a3.485,3.485,0,0,0-3,2.85l-4.35,31.5C41.978,108.938,46.628,120.187,61.628,120.187Zm48-4.349a2.3,2.3,0,0,0,2.1,2.85h5.1a3.236,3.236,0,0,0,3.15-2.85l5.55-40.049c0.3,0,8.25-8.55,17.849-8.55,7.5,0,11.1,5.55,9.45,16.949l-4.35,31.649a2.3,2.3,0,0,0,2.1,2.85h5.4a3.339,3.339,0,0,0,3-2.85l4.5-31.649c2.1-15.6-3.15-27-17.7-27-11.1,0-19.8,7.95-20.1,7.95l-0.6-4.65a1.771,1.771,0,0,0-1.95-1.8h-3a2.982,2.982,0,0,0-3,2.85ZM232.175,61.09c0.15-1.65-.3-2.4-1.95-2.4h-3.3a2.121,2.121,0,0,0-2.1,1.35l-1.95,3.9a18.4,18.4,0,0,0-14.55-6.75c-16.2,0-29.849,13.649-29.849,36.448,0,14.55,8.85,26.549,20.85,26.549,10.649,0,17.549-7.8,17.849-7.8l0.6,4.05c0.15,1.35.6,2.25,1.95,2.25h3.3a2.5,2.5,0,0,0,2.7-2.25Zm-14.849,39.748s-5.85,9.9-15.45,9.9c-8.849,0-13.049-8.55-13.049-17.1,0-19.2,9.75-26.549,18.6-26.549a14.228,14.228,0,0,1,12.9,7.2Zm60.45-7.8c0,15.45,11.1,27.149,24.149,27.149,11.7,0,19.949-7.949,22.8-11.549a1.553,1.553,0,0,0-.15-2.4l-1.8-1.65c-0.9-.9-1.65-0.9-2.85.3-1.65,1.8-7.649,9.15-17.249,9.15-10.5,0-18.149-9.45-18.149-21.749,0-16.349,12.6-28.8,25.649-28.8a18.529,18.529,0,0,1,14.1,6.45,1.9,1.9,0,0,0,3,.3l1.2-1.05c0.9-.9,1.35-1.8.75-2.7a22.083,22.083,0,0,0-18.449-9.3C293.375,57.19,277.776,71.889,277.776,93.039Zm63.448,0c0,15,10.05,27.149,23.1,27.149,17.25,0,31.8-16.2,31.8-35.848,0-14.849-9.9-27.149-22.949-27.149C355.624,57.19,341.224,73.539,341.224,93.039Zm6.6-.6c0-15.9,11.55-28.949,24.449-28.949,10.2,0,17.1,9.6,17.1,21.449,0,16.049-11.549,29.1-24.3,29.1C354.724,114.038,347.824,104.438,347.824,92.439Zm62.4,24.3c-0.15,1.05.3,1.95,1.35,1.95h3.15a1.932,1.932,0,0,0,2.1-1.95l6-42.749c0.45-.9,6.749-10.5,17.249-10.5a12.343,12.343,0,0,1,6.45,1.95,1.7,1.7,0,0,0,2.55-.75l1.5-3c0.6-1.2,0-2.1-1.2-2.7a17.411,17.411,0,0,0-7.95-1.8,22.806,22.806,0,0,0-18,8.85l0.3-5.7a1.543,1.543,0,0,0-1.5-1.65h-1.95a2.376,2.376,0,0,0-2.1,1.95Zm45.749,0c-0.15,1.05.3,1.95,1.35,1.95h2.85a2.062,2.062,0,0,0,2.25-1.95l6-42.749c0.6-.75,9.6-10.5,20.4-10.5,9.9,0,14.4,7.35,12.449,21.149l-4.5,32.1a1.663,1.663,0,0,0,1.65,1.95h2.7a2.4,2.4,0,0,0,2.25-1.95l4.5-32.1c2.4-16.8-3.3-27.449-17.7-27.449a31.13,31.13,0,0,0-21.149,9l0.3-6a1.463,1.463,0,0,0-1.65-1.5h-1.5a2.4,2.4,0,0,0-2.25,1.95Zm89.248,3.449c10.8,0,18.3-6.6,19.8-8.7l-0.3,5.4a1.583,1.583,0,0,0,1.5,1.8h1.8a2.4,2.4,0,0,0,2.25-1.95l7.8-56.1a1.643,1.643,0,0,0-1.5-1.95h-2.85a2.016,2.016,0,0,0-2.1,1.95l-6,42.748c-0.45.75-7.95,10.65-19.049,10.65-9.75,0-14.4-7.2-12.45-21.15l4.65-32.249a1.663,1.663,0,0,0-1.65-1.95h-2.85a2.374,2.374,0,0,0-2.1,1.95l-4.5,32.249C525.271,109.838,530.821,120.187,545.22,120.187Zm100.5-59.547a1.643,1.643,0,0,0-1.5-1.95h-1.65a2.048,2.048,0,0,0-2.1,1.65l-1.2,4.05c-1.05-1.5-6.449-7.2-16.349-7.2-16.649,0-30.6,16.349-30.6,36.3,0,14.849,8.55,26.7,20.849,26.7,10.35,0,17.85-6.749,19.5-8.7l-0.3,5.1a1.7,1.7,0,0,0,1.8,2.1h1.65a2.24,2.24,0,0,0,2.1-1.95Zm-12.45,42.6c-0.3.6-7.8,10.8-18.749,10.8-9.749,0-15.6-9.9-15.6-21.449,0-15.9,10.049-29.1,23.849-29.1a17.236,17.236,0,0,1,15,8.25Z" transform="translate(-10.625 -13.688)"/>
</svg>
